<svg width="60" height="60" viewBox="0 0 60 60" fill="none" xmlns="http://www.w3.org/2000/svg">
<path d="M29.9998 22.1895C25.699 22.1895 22.1892 25.6993 22.1892 30C22.1892 34.3008 25.699 37.8106 29.9998 37.8106C34.3006 37.8106 37.8103 34.3008 37.8103 30C37.8103 25.6993 34.3006 22.1895 29.9998 22.1895ZM53.4256 30C53.4256 26.7657 53.4549 23.5606 53.2732 20.3321C53.0916 16.5821 52.2361 13.2539 49.4939 10.5118C46.7459 7.76371 43.4236 6.9141 39.6736 6.73246C36.4392 6.55082 33.2342 6.58011 30.0056 6.58011C26.7713 6.58011 23.5662 6.55082 20.3377 6.73246C16.5877 6.9141 13.2596 7.76956 10.5174 10.5118C7.76932 13.2598 6.91971 16.5821 6.73807 20.3321C6.55643 23.5664 6.58573 26.7715 6.58573 30C6.58573 33.2285 6.55643 36.4395 6.73807 39.668C6.91971 43.418 7.77518 46.7461 10.5174 49.4883C13.2654 52.2364 16.5877 53.086 20.3377 53.2676C23.5721 53.4493 26.7771 53.42 30.0056 53.42C33.24 53.42 36.4451 53.4493 39.6736 53.2676C43.4236 53.086 46.7517 52.2305 49.4939 49.4883C52.242 46.7403 53.0916 43.418 53.2732 39.668C53.4607 36.4395 53.4256 33.2344 53.4256 30ZM29.9998 42.0176C23.3494 42.0176 17.9822 36.6504 17.9822 30C17.9822 23.3496 23.3494 17.9825 29.9998 17.9825C36.6502 17.9825 42.0174 23.3496 42.0174 30C42.0174 36.6504 36.6502 42.0176 29.9998 42.0176ZM42.5096 20.2969C40.9568 20.2969 39.7029 19.043 39.7029 17.4903C39.7029 15.9375 40.9568 14.6836 42.5096 14.6836C44.0623 14.6836 45.3162 15.9375 45.3162 17.4903C45.3167 17.859 45.2444 18.2241 45.1035 18.5649C44.9626 18.9056 44.7559 19.2152 44.4952 19.4759C44.2345 19.7366 43.9249 19.9433 43.5842 20.0842C43.2434 20.2251 42.8783 20.2974 42.5096 20.2969Z" fill="white"/>
</svg>
