<svg width="270" height="80" viewBox="0 0 270 80" fill="none" xmlns="http://www.w3.org/2000/svg">
<path d="M100.519 23.56V27.256H88.0394V37.192H99.5594V40.84H88.0394V51.304H100.519V55H83.9594V23.56H100.519ZM116.912 22.984C118.16 22.984 119.504 23.112 120.944 23.368C122.416 23.592 123.28 23.72 123.536 23.752L123.44 27.352C120.624 26.84 118.448 26.584 116.912 26.584C114.736 26.584 113.168 27.032 112.208 27.928C111.248 28.824 110.768 30.312 110.768 32.392V46.12C110.768 48.2 111.232 49.688 112.16 50.584C113.12 51.448 114.704 51.88 116.912 51.88C118.448 51.88 120.624 51.624 123.44 51.112L123.536 54.808C123.28 54.84 122.416 54.968 120.944 55.192C119.504 55.448 118.16 55.576 116.912 55.576C113.232 55.576 110.608 54.792 109.04 53.224C107.472 51.656 106.688 49.208 106.688 45.88V32.68C106.688 29.352 107.472 26.904 109.04 25.336C110.608 23.768 113.232 22.984 116.912 22.984ZM139.512 22.984C143.096 22.984 145.736 23.88 147.432 25.672C149.128 27.464 149.976 30.008 149.976 33.304V45.256C149.976 48.552 149.128 51.096 147.432 52.888C145.736 54.68 143.096 55.576 139.512 55.576C135.928 55.576 133.288 54.68 131.592 52.888C129.896 51.096 129.048 48.552 129.048 45.256V33.304C129.048 30.008 129.896 27.464 131.592 25.672C133.288 23.88 135.928 22.984 139.512 22.984ZM139.512 26.584C137.4 26.584 135.8 27.112 134.712 28.168C133.656 29.224 133.128 30.776 133.128 32.824V45.688C133.128 47.736 133.656 49.304 134.712 50.392C135.8 51.448 137.4 51.976 139.512 51.976C141.624 51.976 143.208 51.448 144.264 50.392C145.352 49.304 145.896 47.736 145.896 45.688V32.872C145.896 30.824 145.352 29.272 144.264 28.216C143.208 27.128 141.624 26.584 139.512 26.584ZM173.441 22.984C175.169 22.984 177.425 23.24 180.209 23.752L180.113 27.352C177.489 26.84 175.265 26.584 173.441 26.584C171.585 26.584 170.241 26.952 169.409 27.688C168.609 28.424 168.209 29.544 168.209 31.048V32.296C168.209 33.096 168.305 33.736 168.497 34.216C168.721 34.664 169.105 35.064 169.649 35.416C170.193 35.736 171.009 36.072 172.097 36.424L176.561 37.912C178.705 38.648 180.209 39.624 181.073 40.84C181.969 42.056 182.417 43.832 182.417 46.168V47.08C182.417 49.928 181.585 52.056 179.921 53.464C178.289 54.872 175.601 55.576 171.857 55.576C170.033 55.576 167.697 55.256 164.849 54.616L164.945 50.92C167.601 51.56 169.873 51.88 171.761 51.88C174.161 51.88 175.857 51.528 176.849 50.824C177.841 50.088 178.337 48.952 178.337 47.416V45.832C178.337 44.712 178.081 43.864 177.569 43.288C177.089 42.68 176.225 42.168 174.977 41.752L170.033 40.12C167.825 39.384 166.289 38.44 165.425 37.288C164.561 36.104 164.129 34.328 164.129 31.96V31.432C164.129 28.648 164.865 26.552 166.337 25.144C167.841 23.704 170.209 22.984 173.441 22.984ZM191.534 34.696C193.294 32.232 195.342 31 197.678 31C199.726 31 201.294 31.704 202.382 33.112C203.502 34.488 204.062 36.456 204.062 39.016V55H199.982V39.592C199.982 36.392 198.942 34.792 196.862 34.792C195.934 34.792 194.99 35.144 194.03 35.848C193.07 36.552 192.238 37.512 191.534 38.728V55H187.454V22.216H191.534V34.696ZM218.531 31C221.379 31 223.491 31.768 224.867 33.304C226.275 34.808 226.979 36.952 226.979 39.736V46.84C226.979 49.624 226.275 51.784 224.867 53.32C223.491 54.824 221.379 55.576 218.531 55.576C215.683 55.576 213.555 54.824 212.147 53.32C210.771 51.784 210.083 49.624 210.083 46.84V39.736C210.083 36.952 210.771 34.808 212.147 33.304C213.555 31.768 215.683 31 218.531 31ZM218.531 34.408C217.155 34.408 216.083 34.84 215.315 35.704C214.547 36.568 214.163 37.8 214.163 39.4V47.176C214.163 48.776 214.547 50.008 215.315 50.872C216.083 51.736 217.155 52.168 218.531 52.168C219.907 52.168 220.979 51.736 221.747 50.872C222.515 50.008 222.899 48.776 222.899 47.176V39.352C222.899 37.752 222.515 36.536 221.747 35.704C220.979 34.84 219.907 34.408 218.531 34.408ZM240.884 31C243.572 31 245.62 31.736 247.028 33.208C248.436 34.68 249.14 36.808 249.14 39.592V44.536H236.804V47.368C236.804 49 237.188 50.184 237.956 50.92C238.756 51.624 240.004 51.976 241.7 51.976C243.364 51.976 245.444 51.72 247.94 51.208L248.036 54.76C245.06 55.304 242.932 55.576 241.652 55.576C238.484 55.576 236.196 54.888 234.788 53.512C233.412 52.136 232.724 50.008 232.724 47.128V39.592C232.724 36.808 233.396 34.68 234.74 33.208C236.116 31.736 238.164 31 240.884 31ZM240.884 34.408C239.636 34.408 238.644 34.808 237.908 35.608C237.172 36.376 236.804 37.496 236.804 38.968V41.272H245.06V39.112C245.06 37.576 244.676 36.408 243.908 35.608C243.172 34.808 242.164 34.408 240.884 34.408ZM261.393 31C262.737 31 264.353 31.192 266.241 31.576L266.145 35.032C264.481 34.648 262.961 34.456 261.585 34.456C258.705 34.456 257.265 35.384 257.265 37.24V37.672C257.265 38.248 257.409 38.712 257.697 39.064C258.017 39.416 258.577 39.784 259.377 40.168L263.889 42.28C266.609 43.56 267.969 45.432 267.969 47.896V48.952C267.937 51.16 267.265 52.824 265.953 53.944C264.673 55.032 262.641 55.576 259.857 55.576C258.417 55.576 256.353 55.24 253.665 54.568L253.857 50.92C256.257 51.624 258.225 51.976 259.761 51.976C261.329 51.976 262.417 51.768 263.025 51.352C263.633 50.904 263.937 50.184 263.937 49.192V48.712C263.937 47.944 263.777 47.336 263.457 46.888C263.169 46.44 262.673 46.056 261.969 45.736L257.312 43.672C255.905 43.032 254.865 42.264 254.193 41.368C253.553 40.472 253.233 39.432 253.233 38.248V37.576C253.297 35.4 253.969 33.768 255.249 32.68C256.561 31.56 258.609 31 261.393 31Z" fill="white"/>
<path d="M25.278 38.9149C27.0375 43.8407 26.8503 48.9668 21.5719 51.0093C10.7156 55.2944 8.28231 44.041 8.13257 43.4803L25.278 38.9149ZM6.44798 35.671L22.6201 31.3859C21.9088 27.1809 22.9944 22.9758 22.9944 18.0099C22.9944 11.2819 18.0155 -1.89381 10.0792 0.228722C1.01984 2.63159 -0.290397 13.4044 0.0465215 18.6106C0.495746 23.8169 6.18593 34.9501 6.44798 35.671ZM51.8946 71.4737C51.7823 72.0744 49.3115 83.2878 38.4553 79.0427C33.2143 76.9602 32.9897 71.8341 34.7492 66.9082L51.8946 71.4737ZM59.9432 46.6441C60.3175 41.4379 59.0447 30.625 49.9479 28.2221C42.0491 26.0195 37.0702 39.2753 37.0702 46.0434C37.0702 50.9692 38.1183 55.1742 37.4819 59.3793L53.5792 63.6644C53.8787 62.9435 59.5314 51.8102 59.9432 46.6441Z" fill="#FF0000"/>
</svg>
