<svg width="70" height="70" viewBox="0 0 70 70" fill="none" xmlns="http://www.w3.org/2000/svg">
<path d="M35 4.375C18.0879 4.375 4.375 18.0879 4.375 35C4.375 51.9121 18.0879 65.625 35 65.625C51.9121 65.625 65.625 51.9121 65.625 35C65.625 18.0879 51.9121 4.375 35 4.375ZM49.7178 27.46C49.7383 27.7813 49.7383 28.1162 49.7383 28.4443C49.7383 38.4795 42.0957 50.0391 28.1299 50.0391C23.8232 50.0391 19.8311 48.7881 16.4678 46.6348C17.083 46.7031 17.6709 46.7305 18.2998 46.7305C21.8545 46.7305 25.1221 45.5274 27.7266 43.4902C24.3906 43.4219 21.5879 41.2344 20.6309 38.2266C21.7998 38.3975 22.8525 38.3975 24.0557 38.0899C22.338 37.7409 20.7941 36.808 19.6862 35.4497C18.5784 34.0914 17.975 32.3915 17.9785 30.6387V30.543C18.9834 31.1104 20.166 31.459 21.4033 31.5068C20.3632 30.8136 19.5102 29.8745 18.9199 28.7727C18.3296 27.6708 18.0204 26.4404 18.0195 25.1904C18.0195 23.7754 18.3887 22.4834 19.0518 21.3623C20.9583 23.7093 23.3374 25.6289 26.0344 26.9963C28.7314 28.3636 31.686 29.1481 34.7061 29.2988C33.6328 24.1377 37.4883 19.9609 42.1231 19.9609C44.3106 19.9609 46.2793 20.877 47.667 22.3535C49.3828 22.0322 51.0234 21.3897 52.4863 20.5283C51.919 22.2852 50.7295 23.7686 49.1504 24.7051C50.6817 24.541 52.1582 24.1172 53.5254 23.5225C52.4932 25.04 51.2012 26.3867 49.7178 27.46Z" fill="white"/>
</svg>
